<svg width="30" height="30" viewBox="0 0 30 30" fill="none" xmlns="http://www.w3.org/2000/svg">
<path d="M24.6858 0H6.69778C5.56056 0 4.63538 0.925249 4.63538 2.06247V4.26638C3.83067 4.54772 3.25165 5.31407 3.25165 6.21353V17.2039C2.44694 17.4852 1.86798 18.2516 1.86798 19.1511V21.9185C1.86798 22.8179 2.44701 23.5842 3.25165 23.8655V27.9375C3.25165 29.0748 4.17689 30 5.31411 30H24.6858C26.586 30 28.132 28.4541 28.132 26.5539V3.44606C28.132 1.54588 26.586 0 24.6858 0ZM3.22545 19.1511C3.22545 18.7623 3.54167 18.4461 3.93038 18.4461H10.6956V22.6234H3.93038C3.54167 22.6234 3.22545 22.3072 3.22545 21.9185V19.1511ZM13.4628 24.0071H12.0532V23.3028C12.0532 23.3026 12.0532 23.3023 12.0532 23.3021C12.0532 23.3019 12.0532 23.3017 12.0532 23.3015V17.0624H13.4628V24.0071ZM26.7745 26.5539C26.7745 27.7056 25.8375 28.6425 24.6858 28.6425H24.3268V10.6413C24.3268 10.2665 24.0229 9.96258 23.648 9.96258C23.2732 9.96258 22.9693 10.2665 22.9693 10.6413V28.6425H5.31411C4.9254 28.6425 4.60911 28.3263 4.60911 27.9375V23.9809H10.6956V25.3777C10.6956 25.7525 10.9995 26.0564 11.3744 26.0564C11.7492 26.0564 12.0531 25.7525 12.0531 25.3777V25.3646H13.4628V25.3777C13.4628 25.7525 13.7666 26.0564 14.1415 26.0564C14.5164 26.0564 14.8202 25.7525 14.8202 25.3777V15.6918C14.8202 15.317 14.5164 15.0131 14.1415 15.0131C13.7666 15.0131 13.4628 15.317 13.4628 15.6918V15.7049H12.0531V15.6918C12.0531 15.317 11.7492 15.0131 11.3744 15.0131C10.9995 15.0131 10.6956 15.317 10.6956 15.6918V17.0886H4.60911V6.21353C4.60911 5.82475 4.9254 5.50853 5.31411 5.50853H22.9694V8.56575C22.9694 8.94054 23.2732 9.24448 23.6481 9.24448C24.023 9.24448 24.3268 8.94054 24.3268 8.56575V5.36837C24.9367 5.10475 25.3646 4.49756 25.3646 3.79201C25.3646 3.41722 25.0608 3.11328 24.6859 3.11328C24.311 3.11328 24.0072 3.41722 24.0072 3.79201C24.0072 3.99 23.8461 4.15106 23.6481 4.15106H5.99284V3.43303H22.2644C22.6392 3.43303 22.9431 3.1291 22.9431 2.7543C22.9431 2.3795 22.6392 2.07557 22.2644 2.07557H5.99284V2.06247C5.99284 1.67369 6.30907 1.35747 6.69778 1.35747H24.6858C25.8375 1.35747 26.7745 2.29446 26.7745 3.44606V26.5539Z" fill="#00FFC2"/>
<path d="M18.736 17.0886H16.2171C15.8422 17.0886 15.5384 17.3925 15.5384 17.7673C15.5384 18.1421 15.8422 18.4461 16.2171 18.4461H18.736C19.1247 18.4461 19.441 18.7623 19.441 19.1511V21.9185C19.441 22.3072 19.1247 22.6234 18.736 22.6234H16.2171C15.8422 22.6234 15.5384 22.9273 15.5384 23.3021C15.5384 23.6769 15.8422 23.9809 16.2171 23.9809H18.736C19.8732 23.9809 20.7984 23.0557 20.7984 21.9185V19.1511C20.7984 18.0138 19.8732 17.0886 18.736 17.0886Z" fill="#00FFC2"/>
</svg>
